<?xml version="1.0" standalone="no"?><!DOCTYPE svg PUBLIC "-//W3C//DTD SVG 1.1//EN" "http://www.w3.org/Graphics/SVG/1.1/DTD/svg11.dtd"><svg t="1779879188074" class="icon" viewBox="0 0 1024 1024" version="1.1" xmlns="http://www.w3.org/2000/svg" p-id="11407" xmlns:xlink="http://www.w3.org/1999/xlink" width="200" height="200"><path d="M35.31 105.932h953.38v529.66H35.31z" fill="#8F96AC" p-id="11408"></path><path d="M997.518 105.932H26.482a8.828 8.828 0 0 1-8.828-8.828V61.794a8.828 8.828 0 0 1 8.828-8.828h971.034a8.828 8.828 0 0 1 8.828 8.828v35.31a8.828 8.828 0 0 1-8.826 8.828z" fill="#707487" p-id="11409"></path><path d="M194.2 741.52h635.58v211.86H194.2z" fill="#B4E1FA" p-id="11410"></path><path d="M459.192 741.518h-52.966l131.154 229.516h52.964z" fill="#DAF0FD" p-id="11411"></path><path d="M353.104 741.518h-88.276l129.104 229.516h88.274zM647.724 741.518h-88.276l129.104 229.516h88.276z" fill="#A0D2F0" p-id="11412"></path><path d="M194.2 741.52h635.58v52.966H194.2z" fill="#A0D2F0" p-id="11413"></path><path d="M489.458 794.482l-30.266-52.964h-52.966l30.268 52.964z" fill="#B4E1FA" p-id="11414"></path><path d="M494.34 759.18h35.31v194.2H494.34zM635.58 759.18h35.31v194.2H635.58zM353.1 759.18h35.31v194.2H353.1zM211.86 759.18h35.31v194.2H211.86zM776.82 759.18h35.31v194.2H776.82z" fill="#9FA7BF" p-id="11415"></path><path d="M35.31 706.206V953.38h176.552v-176.552a17.658 17.658 0 0 1 17.656-17.656h573.794A8.828 8.828 0 0 1 812.14 768v185.38h176.552V706.206H35.31z" fill="#8F96AC" p-id="11416"></path><path d="M997.518 723.862H26.482a8.828 8.828 0 0 1-8.828-8.828v-88.276a8.828 8.828 0 0 1 8.828-8.828h971.034a8.828 8.828 0 0 1 8.828 8.828v88.276a8.828 8.828 0 0 1-8.826 8.828z" fill="#C7CFE2" p-id="11417"></path><path d="M918.068 564.966H105.932c-19.502 0-35.31-15.808-35.31-35.31v-35.31c0-19.502 15.808-35.31 35.31-35.31h812.138c19.502 0 35.31 15.808 35.31 35.31v35.31c0 19.502-15.808 35.31-35.312 35.31z" fill="#707487" p-id="11418"></path><path d="M617.932 564.966H406.068a17.658 17.658 0 0 1-17.656-17.656v-70.62a17.658 17.658 0 0 1 17.656-17.656h211.862a17.658 17.658 0 0 1 17.656 17.656v70.62a17.656 17.656 0 0 1-17.654 17.656z" fill="#B4E1FA" p-id="11419"></path><path d="M617.932 459.034H406.068a17.658 17.658 0 0 0-17.656 17.656V512a17.658 17.658 0 0 1 17.656-17.656h211.862a17.658 17.658 0 0 1 17.656 17.656v-35.31a17.656 17.656 0 0 0-17.654-17.656z" fill="#A0D2F0" p-id="11420"></path><path d="M462.344 476.69h-59.586l49.656 88.276H512z" fill="#A0D2F0" p-id="11421"></path><path d="M519.568 459.034l60.53 105.932h37.832c4.78 0 9.084-1.938 12.264-5.022l-57.662-100.908h-52.964v-0.002z" fill="#DAF0FD" p-id="11422"></path><path d="M592.708 494.344l-20.176-35.31h-52.964l20.174 35.31z" fill="#B4E1FA" p-id="11423"></path><path d="M494.34 459.04h35.31v105.932H494.34z" fill="#9FA7BF" p-id="11424"></path><path d="M900.414 564.966H688.552a17.658 17.658 0 0 1-17.656-17.656v-70.62a17.658 17.658 0 0 1 17.656-17.656h211.862a17.658 17.658 0 0 1 17.656 17.656v70.62a17.66 17.66 0 0 1-17.656 17.656z" fill="#B4E1FA" p-id="11425"></path><path d="M900.414 459.034H688.552a17.658 17.658 0 0 0-17.656 17.656V512a17.658 17.658 0 0 1 17.656-17.656h211.862a17.658 17.658 0 0 1 17.656 17.656v-35.31a17.66 17.66 0 0 0-17.656-17.656z" fill="#A0D2F0" p-id="11426"></path><path d="M744.828 476.69h-59.586l49.654 88.276h59.586z" fill="#A0D2F0" p-id="11427"></path><path d="M802.05 459.034l60.53 105.932h37.832c4.78 0 9.084-1.938 12.264-5.022l-57.662-100.908h-52.964v-0.002z" fill="#DAF0FD" p-id="11428"></path><path d="M875.192 494.344l-20.176-35.31h-52.966l20.176 35.31z" fill="#B4E1FA" p-id="11429"></path><path d="M776.82 459.04h35.31v105.932H776.82z" fill="#9FA7BF" p-id="11430"></path><path d="M335.448 564.966H123.586a17.658 17.658 0 0 1-17.656-17.656v-70.62a17.658 17.658 0 0 1 17.656-17.656h211.862a17.658 17.658 0 0 1 17.656 17.656v70.62a17.658 17.658 0 0 1-17.656 17.656z" fill="#B4E1FA" p-id="11431"></path><path d="M335.448 459.034H123.586a17.658 17.658 0 0 0-17.656 17.656V512a17.658 17.658 0 0 1 17.656-17.656h211.862a17.658 17.658 0 0 1 17.656 17.656v-35.31a17.658 17.658 0 0 0-17.656-17.656z" fill="#A0D2F0" p-id="11432"></path><path d="M179.862 476.69H120.276l49.656 88.276h59.586z" fill="#A0D2F0" p-id="11433"></path><path d="M237.084 459.034l60.53 105.932h37.832c4.78 0 9.084-1.938 12.264-5.022l-57.662-100.908h-52.964v-0.002z" fill="#DAF0FD" p-id="11434"></path><path d="M310.226 494.344l-20.176-35.31h-52.966l20.176 35.31z" fill="#B4E1FA" p-id="11435"></path><path d="M211.86 459.04h35.31v105.932H211.86z" fill="#9FA7BF" p-id="11436"></path><path d="M918.068 406.068H105.932c-19.502 0-35.31-15.808-35.31-35.31v-35.31c0-19.502 15.808-35.31 35.31-35.31h812.138c19.502 0 35.31 15.808 35.31 35.31v35.31c0 19.502-15.808 35.31-35.312 35.31z" fill="#707487" p-id="11437"></path><path d="M617.932 406.068H406.068a17.658 17.658 0 0 1-17.656-17.656v-70.62a17.658 17.658 0 0 1 17.656-17.656h211.862a17.658 17.658 0 0 1 17.656 17.656v70.62a17.654 17.654 0 0 1-17.654 17.656z" fill="#B4E1FA" p-id="11438"></path><path d="M617.932 300.138H406.068a17.658 17.658 0 0 0-17.656 17.656v35.31a17.658 17.658 0 0 1 17.656-17.656h211.862a17.658 17.658 0 0 1 17.656 17.656v-35.31a17.656 17.656 0 0 0-17.654-17.656z" fill="#A0D2F0" p-id="11439"></path><path d="M462.344 317.794h-59.586l49.656 88.274H512z" fill="#A0D2F0" p-id="11440"></path><path d="M519.568 300.138l60.53 105.932h37.832c4.78 0 9.084-1.938 12.264-5.022l-57.662-100.908h-52.964v-0.002z" fill="#DAF0FD" p-id="11441"></path><path d="M592.708 335.448l-20.176-35.31h-52.964l20.174 35.31z" fill="#B4E1FA" p-id="11442"></path><path d="M494.34 300.14h35.31v105.932H494.34z" fill="#9FA7BF" p-id="11443"></path><path d="M900.414 406.068H688.552a17.658 17.658 0 0 1-17.656-17.656v-70.62a17.658 17.658 0 0 1 17.656-17.656h211.862a17.658 17.658 0 0 1 17.656 17.656v70.62a17.658 17.658 0 0 1-17.656 17.656z" fill="#B4E1FA" p-id="11444"></path><path d="M900.414 300.138H688.552a17.658 17.658 0 0 0-17.656 17.656v35.31a17.658 17.658 0 0 1 17.656-17.656h211.862a17.658 17.658 0 0 1 17.656 17.656v-35.31a17.66 17.66 0 0 0-17.656-17.656z" fill="#A0D2F0" p-id="11445"></path><path d="M744.828 317.794h-59.586l49.654 88.274h59.586z" fill="#A0D2F0" p-id="11446"></path><path d="M802.05 300.138l60.53 105.932h37.832c4.78 0 9.084-1.938 12.264-5.022l-57.662-100.908h-52.964v-0.002z" fill="#DAF0FD" p-id="11447"></path><path d="M875.192 335.448l-20.176-35.31h-52.966l20.176 35.31z" fill="#B4E1FA" p-id="11448"></path><path d="M776.82 300.14h35.31v105.932H776.82z" fill="#9FA7BF" p-id="11449"></path><path d="M335.448 406.068H123.586a17.658 17.658 0 0 1-17.656-17.656v-70.62a17.658 17.658 0 0 1 17.656-17.656h211.862a17.658 17.658 0 0 1 17.656 17.656v70.62a17.656 17.656 0 0 1-17.656 17.656z" fill="#B4E1FA" p-id="11450"></path><path d="M335.448 300.138H123.586a17.658 17.658 0 0 0-17.656 17.656v35.31a17.658 17.658 0 0 1 17.656-17.656h211.862a17.658 17.658 0 0 1 17.656 17.656v-35.31a17.658 17.658 0 0 0-17.656-17.656z" fill="#A0D2F0" p-id="11451"></path><path d="M179.862 317.794H120.276l49.656 88.274h59.586z" fill="#A0D2F0" p-id="11452"></path><path d="M237.084 300.138l60.53 105.932h37.832c4.78 0 9.084-1.938 12.264-5.022l-57.662-100.908h-52.964v-0.002z" fill="#DAF0FD" p-id="11453"></path><path d="M310.226 335.448l-20.176-35.31h-52.966l20.176 35.31z" fill="#B4E1FA" p-id="11454"></path><path d="M211.86 300.14h35.31v105.932H211.86z" fill="#9FA7BF" p-id="11455"></path><path d="M918.068 247.172H105.932c-19.502 0-35.31-15.808-35.31-35.31V176.552c0-19.502 15.808-35.31 35.31-35.31h812.138c19.502 0 35.31 15.808 35.31 35.31v35.31c0 19.502-15.808 35.31-35.312 35.31z" fill="#707487" p-id="11456"></path><path d="M617.932 247.172H406.068a17.658 17.658 0 0 1-17.656-17.656v-70.62a17.658 17.658 0 0 1 17.656-17.656h211.862a17.658 17.658 0 0 1 17.656 17.656v70.62a17.654 17.654 0 0 1-17.654 17.656z" fill="#B4E1FA" p-id="11457"></path><path d="M617.932 141.242H406.068a17.658 17.658 0 0 0-17.656 17.656v35.31a17.658 17.658 0 0 1 17.656-17.656h211.862a17.658 17.658 0 0 1 17.656 17.656V158.896a17.654 17.654 0 0 0-17.654-17.654z" fill="#A0D2F0" p-id="11458"></path><path d="M462.344 158.896h-59.586l49.656 88.276H512z" fill="#A0D2F0" p-id="11459"></path><path d="M519.568 141.242l60.53 105.932h37.832c4.78 0 9.084-1.938 12.264-5.022l-57.662-100.908h-52.964v-0.002z" fill="#DAF0FD" p-id="11460"></path><path d="M592.708 176.552l-20.176-35.31h-52.964l20.174 35.31z" fill="#B4E1FA" p-id="11461"></path><path d="M494.34 141.24h35.31v105.932H494.34z" fill="#9FA7BF" p-id="11462"></path><path d="M900.414 247.172H688.552a17.658 17.658 0 0 1-17.656-17.656v-70.62a17.658 17.658 0 0 1 17.656-17.656h211.862a17.658 17.658 0 0 1 17.656 17.656v70.62a17.658 17.658 0 0 1-17.656 17.656z" fill="#B4E1FA" p-id="11463"></path><path d="M900.414 141.242H688.552a17.658 17.658 0 0 0-17.656 17.656v35.31a17.658 17.658 0 0 1 17.656-17.656h211.862a17.658 17.658 0 0 1 17.656 17.656V158.896a17.658 17.658 0 0 0-17.656-17.654z" fill="#A0D2F0" p-id="11464"></path><path d="M744.828 158.896h-59.586l49.654 88.276h59.586z" fill="#A0D2F0" p-id="11465"></path><path d="M802.05 141.242l60.53 105.932h37.832c4.78 0 9.084-1.938 12.264-5.022l-57.662-100.908h-52.964v-0.002z" fill="#DAF0FD" p-id="11466"></path><path d="M875.192 176.552l-20.176-35.31h-52.966l20.176 35.31z" fill="#B4E1FA" p-id="11467"></path><path d="M776.82 141.24h35.31v105.932H776.82z" fill="#9FA7BF" p-id="11468"></path><path d="M335.448 247.172H123.586a17.658 17.658 0 0 1-17.656-17.656v-70.62a17.658 17.658 0 0 1 17.656-17.656h211.862a17.658 17.658 0 0 1 17.656 17.656v70.62a17.656 17.656 0 0 1-17.656 17.656z" fill="#B4E1FA" p-id="11469"></path><path d="M335.448 141.242H123.586a17.658 17.658 0 0 0-17.656 17.656v35.31a17.658 17.658 0 0 1 17.656-17.656h211.862a17.658 17.658 0 0 1 17.656 17.656V158.896a17.656 17.656 0 0 0-17.656-17.654z" fill="#A0D2F0" p-id="11470"></path><path d="M179.862 158.896H120.276l49.656 88.276h59.586z" fill="#A0D2F0" p-id="11471"></path><path d="M237.084 141.242l60.53 105.932h37.832c4.78 0 9.084-1.938 12.264-5.022l-57.662-100.908h-52.964v-0.002z" fill="#DAF0FD" p-id="11472"></path><path d="M310.226 176.552l-20.176-35.31h-52.966l20.176 35.31z" fill="#B4E1FA" p-id="11473"></path><path d="M211.86 141.24h35.31v105.932H211.86z" fill="#9FA7BF" p-id="11474"></path><path d="M1015.172 971.034H8.828A8.828 8.828 0 0 1 0 962.206v-17.656a8.828 8.828 0 0 1 8.828-8.828h1006.344a8.828 8.828 0 0 1 8.828 8.828v17.656a8.828 8.828 0 0 1-8.828 8.828z" fill="#8F96AC" p-id="11475"></path></svg>