<?xml version="1.0" standalone="no"?><!DOCTYPE svg PUBLIC "-//W3C//DTD SVG 1.1//EN" "http://www.w3.org/Graphics/SVG/1.1/DTD/svg11.dtd"><svg t="1780312932547" class="icon" viewBox="0 0 1024 1024" version="1.1" xmlns="http://www.w3.org/2000/svg" p-id="6095" xmlns:xlink="http://www.w3.org/1999/xlink" width="200" height="200"><path d="M506.837333 648.490667c-4.309333-1.365333-9.216-5.376-15.402666-9.344-6.144-3.968-13.568-7.850667-16.469334-11.434667-2.901333-3.584-1.322667-6.869333 1.237334-9.301333a11.605333 11.605333 0 0 1 11.178666-2.773334c5.077333 1.152 11.605333 4.949333 17.834667 9.045334 6.229333 4.096 12.074667 8.490667 14.250667 12.288 2.133333 3.797333 0.554667 6.997333-2.048 9.258666a10.88 10.88 0 0 1-10.581334 2.261334m-46.293333-37.205334c-3.968 3.669333-6.144 8.576-1.408 14.421334 4.736 5.845333 16.426667 12.672 27.136 20.010666 10.752 7.338667 20.522667 15.232 28.373333 17.92 7.850667 2.688 13.781333 0.256 17.194667-4.096 3.370667-4.352 4.224-10.538667-0.170667-17.237333-4.352-6.698667-13.952-13.866667-24.064-20.522667-10.112-6.698667-20.821333-12.885333-29.056-14.762666a25.557333 25.557333 0 0 0-5.418666-0.64 17.92 17.92 0 0 0-12.586667 4.906666m224.597333 212.394667c-2.474667 1.749333-4.522667 4.821333-3.968 7.893333 0.512 3.072 3.584 6.229333 7.381334 10.88 3.797333 4.650667 8.32 10.88 11.264 14.293334 2.944 3.413333 4.266667 3.968 5.461333 3.882666 1.194667-0.085333 2.304-0.768 3.626667-2.048a14.933333 14.933333 0 0 0 4.053333-6.656 22.186667 22.186667 0 0 0 0.085333-13.482666 28.501333 28.501333 0 0 0-9.301333-12.032 20.224 20.224 0 0 0-12.117333-4.650667 10.794667 10.794667 0 0 0-6.485334 1.92m20.821334 42.624c-1.365333-0.042667-2.645333-0.981333-8.874667-7.296a310.4 310.4 0 0 1-24.448-27.392c-7.04-9.344-9.856-16.341333-11.221333-24.234667-1.322667-7.893333-1.152-16.682667 3.498666-22.912 4.650667-6.186667 13.781333-9.813333 22.784-10.154666a33.962667 33.962667 0 0 1 25.685334 10.197333c7.808 7.637333 14.506667 19.968 16.341333 31.232 1.792 11.306667-1.28 21.546667-5.333333 29.525333a68.266667 68.266667 0 0 1-12.288 16.938667c-3.157333 3.157333-4.650667 4.053333-6.016 4.053333l-0.128 0.042667m-138.88-433.792c-3.584 0.384-8.234667 4.736-17.706667 12.501333a294.997333 294.997333 0 0 1-43.392 29.909334c-19.541333 10.922667-44.288 21.632-64.384 31.274666-20.096 9.642667-35.498667 18.304-42.88 30.378667-7.338667 12.074667-6.613333 27.648 1.706667 36.309333 8.32 8.661333 24.149333 10.453333 37.717333 11.008 13.525333 0.554667 24.746667-0.085333 35.242667 3.712 10.496 3.84 20.266667 12.117333 32.597333 21.973334 12.330667 9.856 27.178667 21.290667 39.509333 23.978666 12.330667 2.688 22.101333-3.370667 32.682667-8.661333 10.581333-5.290667 22.016-9.813333 37.845333-9.6 15.829333 0.213333 36.138667 5.162667 56.234667 15.786667 20.096 10.624 40.021333 26.88 50.517333 36.992 10.496 10.069333 11.605333 13.952 10.453334 15.445333-1.152 1.536-4.608 0.725333-12.970667-5.973333-8.362667-6.741333-21.632-19.370667-39.082667-29.354667-17.450667-9.984-39.082667-17.28-59.690666-16.682667-20.608 0.554667-40.149333 9.002667-52.522667 23.466667-12.373333 14.506667-17.578667 35.072-23.296 49.664-5.717333 14.592-11.904 23.168-20.053333 26.325333-8.106667 3.157333-18.090667 0.896-30.037334-4.224-11.904-5.12-25.770667-13.098667-37.248-18.858666-11.477333-5.802667-20.650667-9.429333-26.453333-15.061334-5.802667-5.632-8.32-13.269333-8.661333-24.362666-0.384-11.093333 1.365333-25.642667 2.176-36.394667 0.810667-10.709333 0.725333-17.621333-1.664-23.936a45.568 45.568 0 0 0-9.941334-14.890667c-2.944-2.944-4.181333-3.2-4.778666-2.474666-0.597333 0.725333-0.512 2.474667 0.426666 6.741333 0.981333 4.266667 2.816 11.093333 2.090667 24.832-0.768 13.696-4.138667 34.261333-6.784 49.877333-2.645333 15.658667-4.565333 26.368-0.853333 34.517334 3.712 8.149333 13.098667 13.696 30.165333 23.04 17.109333 9.344 41.898667 22.485333 64.810667 36.437333 22.869333 13.952 43.818667 28.757333 66.602666 46.464 22.784 17.706667 47.445333 38.4 64.042667 52.821333 16.554667 14.464 25.088 22.698667 31.658667 25.216 6.570667 2.474667 11.221333-0.768 13.098666-5.930666 1.877333-5.162667 0.981333-12.16-0.597333-18.304a49.92 49.92 0 0 0-10.24-19.626667 211.925333 211.925333 0 0 0-29.013333-30.037333c-12.202667-10.368-26.154667-19.754667-34.261334-26.197334-8.106667-6.442667-10.325333-9.941333-9.045333-11.008 1.28-1.109333 6.016 0.170667 12.928 4.565334 6.912 4.437333 15.957333 11.989333 26.069333 19.584s21.290667 15.189333 31.317334 24.917333c10.026667 9.728 18.858667 21.589333 24.874666 30.165333 5.973333 8.576 9.130667 13.824 12.544 15.872 3.413333 2.048 7.082667 0.896 11.818667-2.133333 4.736-3.029333 10.624-7.936 18.218667-15.146667 7.594667-7.210667 16.938667-16.768 23.509333-27.050666 6.570667-10.24 10.325333-21.162667 12.757333-32.938667 2.389333-11.776 3.456-24.405333 10.538667-36.736 7.125333-12.373333 20.309333-24.490667 42.410667-43.733333 22.101333-19.242667 53.077333-45.653333 80.682666-71.04s51.882667-49.706667 72.32-76.885334c20.437333-27.178667 37.12-57.258667 45.568-74.368 8.448-17.109333 8.704-21.290667 5.973334-22.442666-2.730667-1.194667-8.448 0.64-26.069334 13.312s-47.146667 36.224-80.469333 61.013333c-33.322667 24.789333-70.4 50.816-99.669333 66.944-29.269333 16.128-50.730667 22.357333-66.133334 23.978667-15.402667 1.578667-24.746667-1.450667-30.848-4.693334-6.101333-3.242667-9.002667-6.698667-9.557333-10.282666-0.554667-3.584 1.237333-7.210667 5.76-11.733334 4.522667-4.522667 11.818667-9.898667 19.029333-16.725333 7.253333-6.826667 14.464-15.104 19.968-23.722667 5.546667-8.618667 9.386667-17.578667 11.178667-25.301333 1.792-7.722667 1.450667-14.208-1.706667-16.042667-3.157333-1.834667-9.173333 0.981333-16.085333 4.693334-6.869333 3.669333-14.634667 8.234667-25.301333 12.842666a114.730667 114.730667 0 0 1-39.253334 10.026667 69.632 69.632 0 0 1-46.464-13.354667c-14.592-11.093333-27.093333-30.250667-36.949333-48.938666-9.813333-18.688-17.024-36.864-21.888-47.744-4.608-10.325333-7.125333-14.08-10.453333-14.08-0.298667 0.085333-0.469333 0.085333-0.64 0.085333M276.608 133.12c-21.845333 1.877333-53.333333 7.722667-76.928 14.037333a266.965333 266.965333 0 0 0-49.024 17.92c-9.856 4.778667-14.08 7.594667-15.104 11.605334-1.024 4.053333 1.152 9.301333 6.826667 18.602666 5.632 9.344 14.762667 22.741333 22.826666 41.002667 8.106667 18.261333 15.189333 41.386667 15.402667 70.442667 0.256 29.013333-6.357333 63.957333-10.453333 83.712-4.096 19.754667-5.674667 24.277333-9.685334 26.410666-4.010667 2.133333-10.453333 1.834667-22.442666-0.896-11.946667-2.773333-29.44-7.978667-46.933334-11.050666-17.450667-3.072-34.901333-3.968-47.829333-1.621334-12.970667 2.389333-21.504 8.064-27.52 15.701334-6.016 7.68-9.557333 17.365333-12.032 32A299.818667 299.818667 0 0 0 0 498.688c0.213333 13.482667 2.005333 20.864 5.802667 24.874667 3.797333 4.010667 9.514667 4.650667 20.992 2.304s28.672-7.68 52.224-9.173334a268.373333 268.373333 0 0 1 82.773333 8.618667 249.216 249.216 0 0 1 83.2 39.637333c25.514667 18.730667 48.085333 43.008 66.773333 68.010667 18.730667 25.002667 33.578667 50.730667 42.837334 65.749333 9.258667 15.018667 12.970667 19.413333 15.829333 17.92 2.901333-1.493333 5.034667-8.832 6.186667-17.792 1.194667-8.917333 1.408-19.456-0.853334-36.181333a317.098667 317.098667 0 0 0-13.610666-58.282667c-6.570667-18.602667-14.933333-32.853333-21.12-43.434666-6.229333-10.538667-10.325333-17.365333-10.453334-21.76-0.170667-4.394667 3.626667-6.314667 21.76-13.44s50.602667-19.498667 83.541334-34.474667c32.938667-14.976 66.432-32.597333 87.125333-47.189333 20.736-14.549333 28.757333-26.069333 30.890667-39.978667 2.133333-13.909333-1.664-30.250667-6.784-45.909333a294.4 294.4 0 0 0-22.613334-50.901334 577.877333 577.877333 0 0 0-43.264-68.437333 389.802667 389.802667 0 0 0-46.933333-52.736c-11.989333-10.794667-17.92-13.141333-21.76-12.288-3.84 0.853333-5.546667 4.864-7.125333 20.053333-1.578667 15.189333-2.944 41.514667-6.144 66.517334a317.781333 317.781333 0 0 1-18.432 75.648 535.168 535.168 0 0 1-42.24 84.565333c-16.554667 27.349333-34.304 51.712-44.970667 62.378667s-14.336 7.637333-20.352 2.688c-6.016-4.949333-14.378667-11.733333-20.736-17.066667-6.357333-5.333333-10.794667-9.130667-11.648-12.501333-0.853333-3.413333 1.877333-6.4 11.52-19.114667 9.642667-12.714667 26.197333-35.157333 40.96-63.018667a330.069333 330.069333 0 0 0 33.962667-97.408c6.314667-36.266667 5.930667-75.648 4.053333-99.712-1.877333-24.064-5.290667-32.853333-13.056-38.229333-5.845333-4.053333-14.165333-6.229333-27.221333-6.229333-4.309333 0-9.088 0.256-14.506667 0.725333" p-id="6096"></path></svg>