<?xml version="1.0" standalone="no"?><!DOCTYPE svg PUBLIC "-//W3C//DTD SVG 1.1//EN" "http://www.w3.org/Graphics/SVG/1.1/DTD/svg11.dtd"><svg t="1779879150028" class="icon" viewBox="0 0 1024 1024" version="1.1" xmlns="http://www.w3.org/2000/svg" p-id="10128" xmlns:xlink="http://www.w3.org/1999/xlink" width="200" height="200"><path d="M512 512m-501.76 0a501.76 501.76 0 1 0 1003.52 0 501.76 501.76 0 1 0-1003.52 0Z" fill="#FFECE9" p-id="10129"></path><path d="M567.7056 396.4928V13.312c-18.2272-2.048-36.864-3.072-55.7056-3.072s-37.4784 1.024-55.7056 3.072v383.1808c-26.0096 12.4928-47.104 33.792-59.8016 59.8016H13.312c-2.048 18.2272-3.072 36.864-3.072 55.7056s1.024 37.4784 3.072 55.7056h383.1808c12.4928 26.0096 33.792 47.104 59.8016 59.8016v383.1808c18.2272 2.048 36.864 3.072 55.7056 3.072s37.4784-1.024 55.7056-3.072V627.5072c26.0096-12.4928 47.104-33.792 59.8016-59.8016h383.1808c2.048-18.2272 3.072-36.864 3.072-55.7056s-1.024-37.4784-3.072-55.7056H627.5072c-12.6976-26.0096-33.792-47.104-59.8016-59.8016z" fill="#AAADAD" p-id="10130"></path><path d="M512 1024c-136.8064 0-265.4208-53.248-362.0864-149.9136C53.248 777.4208 0 648.8064 0 512S53.248 246.5792 149.9136 149.9136C246.5792 53.248 375.1936 0 512 0s265.4208 53.248 362.0864 149.9136C970.752 246.5792 1024 375.1936 1024 512s-53.248 265.4208-149.9136 362.0864C777.4208 970.752 648.8064 1024 512 1024z m0-1003.52C241.0496 20.48 20.48 241.0496 20.48 512s220.5696 491.52 491.52 491.52 491.52-220.5696 491.52-491.52S782.9504 20.48 512 20.48z" fill="#1C1D21" p-id="10131"></path><path d="M512 512m-58.7776 0a58.7776 58.7776 0 1 0 117.5552 0 58.7776 58.7776 0 1 0-117.5552 0Z" fill="#508DEF" p-id="10132"></path><path d="M512 581.0176c-38.0928 0-69.0176-30.9248-69.0176-69.0176s30.9248-69.0176 69.0176-69.0176 69.0176 30.9248 69.0176 69.0176-30.9248 69.0176-69.0176 69.0176z m0-117.5552c-26.624 0-48.5376 21.7088-48.5376 48.5376s21.7088 48.5376 48.5376 48.5376 48.5376-21.7088 48.5376-48.5376-21.9136-48.5376-48.5376-48.5376z" fill="#1C1D21" p-id="10133"></path><path d="M705.1264 238.7968c-21.7088 12.4928-36.2496 36.0448-36.2496 62.8736 0 26.8288 14.5408 50.176 36.2496 62.8736 21.7088-12.4928 36.2496-36.0448 36.2496-62.8736 0-26.8288-14.7456-50.3808-36.2496-62.8736z" fill="#0ABFB2" p-id="10134"></path><path d="M705.1264 374.5792c-1.8432 0-3.4816-0.4096-5.12-1.4336-25.6-14.7456-41.3696-42.1888-41.3696-71.68s15.7696-56.9344 41.3696-71.68c3.072-1.8432 7.168-1.8432 10.24 0 25.6 14.7456 41.3696 42.1888 41.3696 71.68s-15.7696 56.9344-41.3696 71.68c-1.6384 1.024-3.4816 1.4336-5.12 1.4336z m0-123.4944c-16.1792 11.6736-26.0096 30.5152-26.0096 50.5856s9.8304 38.912 26.0096 50.5856c16.1792-11.6736 26.0096-30.5152 26.0096-50.5856s-9.8304-39.1168-26.0096-50.5856z" fill="#1C1D21" p-id="10135"></path><path d="M705.1264 466.3296c-5.7344 0-10.24-4.5056-10.24-10.24v-85.8112c0-5.7344 4.5056-10.24 10.24-10.24s10.24 4.5056 10.24 10.24v85.8112c0 5.7344-4.7104 10.24-10.24 10.24z" fill="#1C1D21" p-id="10136"></path><path d="M623.8208 316.8256c21.504-5.7344 45.4656-0.2048 62.464 16.7936 16.9984 16.9984 22.528 40.7552 16.7936 62.464-21.504 5.7344-45.4656 0.2048-62.464-16.7936-16.9984-16.9984-22.7328-40.96-16.7936-62.464z" fill="#0ABFB2" p-id="10137"></path><path d="M686.2848 408.3712c-19.6608 0-38.912-7.7824-53.0432-21.9136-18.8416-18.8416-26.2144-46.4896-19.456-72.2944 1.024-3.4816 3.6864-6.3488 7.168-7.168 25.8048-6.9632 53.4528 0.6144 72.2944 19.456 18.8416 18.8416 26.2144 46.4896 19.456 72.2944-1.024 3.4816-3.6864 6.3488-7.168 7.168-6.3488 1.6384-12.9024 2.4576-19.2512 2.4576z m-53.8624-82.944c-2.4576 16.9984 3.072 34.2016 15.36 46.4896s29.4912 17.8176 46.4896 15.36c2.4576-16.9984-3.072-34.2016-15.36-46.4896s-29.696-17.8176-46.4896-15.36z" fill="#1C1D21" p-id="10138"></path><path d="M707.1744 395.8784c21.504 5.7344 45.4656 0.2048 62.464-16.7936 16.9984-16.9984 22.528-40.7552 16.7936-62.464-21.504-5.7344-45.4656-0.2048-62.464 16.7936-16.9984 16.9984-22.528 40.96-16.7936 62.464z" fill="#0ABFB2" p-id="10139"></path><path d="M723.7632 408.3712c-6.3488 0-12.9024-0.8192-19.2512-2.4576-3.4816-1.024-6.3488-3.6864-7.168-7.168-6.9632-25.8048 0.6144-53.4528 19.456-72.2944 18.8416-18.8416 46.4896-26.2144 72.2944-19.456 3.4816 1.024 6.3488 3.6864 7.168 7.168 6.9632 25.8048-0.6144 53.4528-19.456 72.2944-14.1312 14.1312-33.3824 21.9136-53.0432 21.9136z m-7.9872-21.0944c16.9984 2.4576 34.2016-3.072 46.4896-15.36s17.8176-29.4912 15.36-46.4896c-16.9984-2.4576-34.2016 3.072-46.4896 15.36-12.0832 12.288-17.8176 29.696-15.36 46.4896z" fill="#1C1D21" p-id="10140"></path><path d="M319.0784 785.2032c21.7088-12.4928 36.2496-36.0448 36.2496-62.8736 0-26.8288-14.5408-50.176-36.2496-62.8736-21.7088 12.4928-36.2496 36.0448-36.2496 62.8736-0.2048 26.8288 14.5408 50.3808 36.2496 62.8736z" fill="#0ABFB2" p-id="10141"></path><path d="M319.0784 795.4432c-1.8432 0-3.4816-0.4096-5.12-1.4336-25.6-14.7456-41.3696-42.1888-41.3696-71.68s15.7696-56.9344 41.3696-71.68c3.072-1.8432 7.168-1.8432 10.24 0 25.6 14.7456 41.3696 42.1888 41.3696 71.68s-15.7696 56.9344-41.3696 71.68c-1.6384 1.024-3.4816 1.4336-5.12 1.4336z m0-123.6992c-16.1792 11.6736-26.0096 30.5152-26.0096 50.5856s9.8304 38.912 26.0096 50.5856c16.1792-11.6736 26.0096-30.5152 26.0096-50.5856s-9.8304-38.912-26.0096-50.5856z" fill="#1C1D21" p-id="10142"></path><path d="M319.0784 663.7568c-5.7344 0-10.24-4.5056-10.24-10.24v-85.8112c0-5.7344 4.5056-10.24 10.24-10.24s10.24 4.5056 10.24 10.24v85.8112c0 5.7344-4.7104 10.24-10.24 10.24z" fill="#1C1D21" p-id="10143"></path><path d="M400.1792 707.1744c-21.504 5.7344-45.4656 0.2048-62.464-16.7936-16.9984-16.9984-22.528-40.7552-16.7936-62.464 21.504-5.7344 45.4656-0.2048 62.464 16.7936 16.9984 16.9984 22.7328 40.96 16.7936 62.464z" fill="#0ABFB2" p-id="10144"></path><path d="M383.5904 719.4624c-19.6608 0-38.912-7.7824-53.0432-21.9136-18.8416-18.8416-26.2144-46.4896-19.456-72.2944 1.024-3.4816 3.6864-6.3488 7.168-7.168 25.8048-6.9632 53.4528 0.6144 72.2944 19.456 18.8416 18.8416 26.2144 46.4896 19.456 72.2944-1.024 3.4816-3.6864 6.3488-7.168 7.168-6.3488 1.6384-12.6976 2.4576-19.2512 2.4576z m16.5888-12.288zM329.728 636.7232c-2.4576 16.9984 3.072 34.2016 15.36 46.4896s29.4912 17.8176 46.4896 15.36c2.4576-16.9984-3.072-34.2016-15.36-46.4896-12.0832-12.288-29.4912-17.8176-46.4896-15.36z" fill="#1C1D21" p-id="10145"></path><path d="M316.8256 628.1216c-21.504-5.7344-45.4656-0.2048-62.464 16.7936-16.9984 16.9984-22.528 40.7552-16.7936 62.464 21.504 5.7344 45.4656 0.2048 62.464-16.7936 16.9984-16.9984 22.528-40.96 16.7936-62.464z" fill="#0ABFB2" p-id="10146"></path><path d="M254.3616 719.4624c-6.3488 0-12.9024-0.8192-19.2512-2.4576-3.4816-1.024-6.3488-3.6864-7.168-7.168-6.9632-25.8048 0.6144-53.4528 19.456-72.2944 18.8416-18.8416 46.4896-26.2144 72.2944-19.456 3.4816 1.024 6.3488 3.6864 7.168 7.168 6.9632 25.8048-0.6144 53.4528-19.456 72.2944-14.336 14.336-33.5872 21.9136-53.0432 21.9136z m-7.9872-20.8896c16.9984 2.4576 34.2016-3.072 46.4896-15.36s17.8176-29.4912 15.36-46.4896c-16.9984-2.4576-34.2016 3.072-46.4896 15.36-12.288 12.0832-18.0224 29.4912-15.36 46.4896zM99.7376 466.5344H92.16c-5.7344 0-10.24-4.5056-10.24-10.24s4.5056-10.24 10.24-10.24h7.5776c5.7344 0 10.24 4.5056 10.24 10.24s-4.7104 10.24-10.24 10.24zM396.4928 466.5344H133.12c-5.7344 0-10.24-4.5056-10.24-10.24s4.5056-10.24 10.24-10.24h257.2288c12.6976-23.552 32.1536-43.008 55.7056-55.7056V13.312c0-5.12 3.8912-9.6256 9.216-10.24 19.0464-2.048 38.0928-3.072 56.9344-3.072s37.888 1.024 56.9344 3.072c5.12 0.6144 9.216 4.9152 9.216 10.24v48.5376c0 5.7344-4.5056 10.24-10.24 10.24s-10.24-4.5056-10.24-10.24V22.528c-15.1552-1.4336-30.5152-2.048-45.4656-2.048s-30.3104 0.6144-45.4656 2.048v373.9648c0 3.8912-2.2528 7.5776-5.7344 9.216-23.9616 11.4688-43.4176 31.1296-54.8864 54.8864-2.2528 3.6864-5.9392 5.9392-9.8304 5.9392z" fill="#1C1D21" p-id="10147"></path><path d="M567.7056 116.736c-5.7344 0-10.24-4.5056-10.24-10.24v-6.7584c0-5.7344 4.5056-10.24 10.24-10.24s10.24 4.5056 10.24 10.24V106.496c0 5.7344-4.5056 10.24-10.24 10.24zM845.4144 466.5344H627.5072c-3.8912 0-7.5776-2.2528-9.216-5.7344-11.4688-23.9616-31.1296-43.4176-54.8864-54.8864-3.4816-1.6384-5.7344-5.3248-5.7344-9.216V143.36c0-5.7344 4.5056-10.24 10.24-10.24s10.24 4.5056 10.24 10.24v246.9888c23.552 12.6976 43.008 32.1536 55.7056 55.7056h211.5584c5.7344 0 10.24 4.5056 10.24 10.24s-4.7104 10.24-10.24 10.24zM901.7344 466.5344h-9.6256c-5.7344 0-10.24-4.5056-10.24-10.24s4.5056-10.24 10.24-10.24h9.6256c5.7344 0 10.24 4.5056 10.24 10.24s-4.7104 10.24-10.24 10.24z" fill="#1C1D21" p-id="10148"></path><path d="M512 1024c-18.8416 0-37.888-1.024-56.9344-3.072-5.12-0.6144-9.216-4.9152-9.216-10.24V874.496c0-5.7344 4.5056-10.24 10.24-10.24s10.24 4.5056 10.24 10.24v126.976c15.1552 1.4336 30.5152 2.048 45.4656 2.048s30.3104-0.6144 45.4656-2.048V627.5072c0-3.8912 2.2528-7.5776 5.7344-9.216 23.9616-11.4688 43.4176-31.1296 54.8864-54.8864 1.6384-3.4816 5.3248-5.7344 9.216-5.7344H1001.472c1.4336-15.1552 2.048-30.5152 2.048-45.4656s-0.6144-30.3104-2.048-45.4656h-65.9456c-5.7344 0-10.24-4.5056-10.24-10.24s4.5056-10.24 10.24-10.24h75.1616c5.12 0 9.6256 3.8912 10.24 9.216 2.048 19.0464 3.072 38.0928 3.072 56.9344s-1.024 37.888-3.072 56.9344c-0.6144 5.12-4.9152 9.216-10.24 9.216h-376.832c-12.6976 23.552-32.1536 43.008-55.7056 55.7056v376.832c0 5.12-3.8912 9.6256-9.216 10.24-19.0464 1.6384-38.0928 2.6624-56.9344 2.6624z" fill="#1C1D21" p-id="10149"></path><path d="M456.2944 848.4864c-5.7344 0-10.24-4.5056-10.24-10.24V827.392c0-5.7344 4.5056-10.24 10.24-10.24s10.24 4.5056 10.24 10.24v10.8544c0 5.7344-4.7104 10.24-10.24 10.24zM456.2944 802.2016c-5.7344 0-10.24-4.5056-10.24-10.24v-158.1056c-23.552-12.6976-43.008-32.1536-55.7056-55.7056H13.312c-5.12 0-9.6256-3.8912-10.24-9.216C1.024 549.888 0 530.8416 0 512s1.024-37.888 3.072-56.9344c0.6144-5.12 4.9152-9.216 10.24-9.216H57.344c5.7344 0 10.24 4.5056 10.24 10.24s-4.5056 10.24-10.24 10.24H22.528c-1.4336 15.1552-2.048 30.5152-2.048 45.4656s0.6144 30.3104 2.048 45.4656h373.9648c3.8912 0 7.5776 2.2528 9.216 5.7344 11.4688 23.9616 31.1296 43.4176 54.8864 54.8864 3.4816 1.6384 5.7344 5.3248 5.7344 9.216v164.4544c0.2048 5.9392-4.5056 10.6496-10.0352 10.6496z" fill="#1C1D21" p-id="10150"></path><path d="M214.4256 238.7968v216.064h139.6736V238.7968c0-11.264-9.216-20.48-20.48-20.48h-98.7136c-11.264 0-20.48 9.216-20.48 20.48z" fill="#E0E0E0" p-id="10151"></path><path d="M354.0992 465.1008h-139.6736c-5.7344 0-10.24-4.5056-10.24-10.24V238.7968c0-16.9984 13.7216-30.72 30.72-30.72h98.7136c16.9984 0 30.72 13.7216 30.72 30.72v216.064c0 5.5296-4.5056 10.24-10.24 10.24z m-129.4336-20.48h119.1936V238.7968c0-5.7344-4.5056-10.24-10.24-10.24h-98.7136c-5.7344 0-10.24 4.5056-10.24 10.24v205.824z" fill="#1C1D21" p-id="10152"></path><path d="M262.5536 394.4448h43.4176v60.416h-43.4176z" fill="#C67552" p-id="10153"></path><path d="M305.9712 465.1008h-43.4176c-5.7344 0-10.24-4.5056-10.24-10.24v-60.416c0-5.7344 4.5056-10.24 10.24-10.24h43.4176c5.7344 0 10.24 4.5056 10.24 10.24v60.416c0 5.5296-4.5056 10.24-10.24 10.24z m-33.1776-20.48h22.9376v-39.936h-22.9376v39.936zM267.6736 273.6128H258.048c-5.7344 0-10.24-4.5056-10.24-10.24s4.5056-10.24 10.24-10.24h9.8304c5.7344 0 10.24 4.5056 10.24 10.24s-4.7104 10.24-10.4448 10.24zM310.6816 273.6128h-9.8304c-5.7344 0-10.24-4.5056-10.24-10.24s4.5056-10.24 10.24-10.24h9.8304c5.7344 0 10.24 4.5056 10.24 10.24s-4.7104 10.24-10.24 10.24zM267.6736 317.8496H258.048c-5.7344 0-10.24-4.5056-10.24-10.24s4.5056-10.24 10.24-10.24h9.8304c5.7344 0 10.24 4.5056 10.24 10.24s-4.7104 10.24-10.4448 10.24zM310.6816 317.8496h-9.8304c-5.7344 0-10.24-4.5056-10.24-10.24s4.5056-10.24 10.24-10.24h9.8304c5.7344 0 10.24 4.5056 10.24 10.24s-4.7104 10.24-10.24 10.24zM267.6736 362.2912H258.048c-5.7344 0-10.24-4.5056-10.24-10.24s4.5056-10.24 10.24-10.24h9.8304c5.7344 0 10.24 4.5056 10.24 10.24s-4.7104 10.24-10.4448 10.24zM310.6816 362.2912h-9.8304c-5.7344 0-10.24-4.5056-10.24-10.24s4.5056-10.24 10.24-10.24h9.8304c5.7344 0 10.24 4.5056 10.24 10.24s-4.7104 10.24-10.24 10.24z" fill="#1C1D21" p-id="10154"></path><path d="M809.5744 785.2032V569.1392h-139.6736v216.064c0 11.264 9.216 20.48 20.48 20.48h98.7136c11.264 0 20.48-9.216 20.48-20.48z" fill="#E0E0E0" p-id="10155"></path><path d="M789.0944 815.9232h-98.7136c-16.9984 0-30.72-13.7216-30.72-30.72V569.1392c0-5.7344 4.5056-10.24 10.24-10.24h139.6736c5.7344 0 10.24 4.5056 10.24 10.24v216.064c0 16.9984-13.9264 30.72-30.72 30.72z m-108.9536-236.544v205.824c0 5.7344 4.5056 10.24 10.24 10.24h98.7136c5.7344 0 10.24-4.5056 10.24-10.24V579.3792h-119.1936z" fill="#1C1D21" p-id="10156"></path><path d="M718.0288 569.1392h43.4176v60.416h-43.4176z" fill="#C67552" p-id="10157"></path><path d="M761.4464 639.7952h-43.4176c-5.7344 0-10.24-4.5056-10.24-10.24v-60.416c0-5.7344 4.5056-10.24 10.24-10.24h43.4176c5.7344 0 10.24 4.5056 10.24 10.24v60.416c0 5.7344-4.5056 10.24-10.24 10.24z m-33.1776-20.48h22.9376v-39.936h-22.9376v39.936zM765.952 770.8672h-9.8304c-5.7344 0-10.24-4.5056-10.24-10.24s4.5056-10.24 10.24-10.24h9.8304c5.7344 0 10.24 4.5056 10.24 10.24s-4.5056 10.24-10.24 10.24zM723.1488 770.8672h-9.8304c-5.7344 0-10.24-4.5056-10.24-10.24s4.5056-10.24 10.24-10.24h9.8304c5.7344 0 10.24 4.5056 10.24 10.24s-4.7104 10.24-10.24 10.24zM765.952 726.6304h-9.8304c-5.7344 0-10.24-4.5056-10.24-10.24s4.5056-10.24 10.24-10.24h9.8304c5.7344 0 10.24 4.5056 10.24 10.24s-4.5056 10.24-10.24 10.24zM723.1488 726.6304h-9.8304c-5.7344 0-10.24-4.5056-10.24-10.24s4.5056-10.24 10.24-10.24h9.8304c5.7344 0 10.24 4.5056 10.24 10.24s-4.7104 10.24-10.24 10.24zM765.952 682.1888h-9.8304c-5.7344 0-10.24-4.5056-10.24-10.24s4.5056-10.24 10.24-10.24h9.8304c5.7344 0 10.24 4.5056 10.24 10.24s-4.5056 10.24-10.24 10.24zM723.1488 682.1888h-9.8304c-5.7344 0-10.24-4.5056-10.24-10.24s4.5056-10.24 10.24-10.24h9.8304c5.7344 0 10.24 4.5056 10.24 10.24s-4.7104 10.24-10.24 10.24zM512 94.208c-5.7344 0-10.24-4.5056-10.24-10.24V57.344c0-5.7344 4.5056-10.24 10.24-10.24s10.24 4.5056 10.24 10.24v26.624c0 5.7344-4.5056 10.24-10.24 10.24zM512 177.152c-5.7344 0-10.24-4.5056-10.24-10.24v-26.624c0-5.7344 4.5056-10.24 10.24-10.24s10.24 4.5056 10.24 10.24v26.624c0 5.7344-4.5056 10.24-10.24 10.24zM512 260.096c-5.7344 0-10.24-4.5056-10.24-10.24v-26.624c0-5.7344 4.5056-10.24 10.24-10.24s10.24 4.5056 10.24 10.24v26.624c0 5.7344-4.5056 10.24-10.24 10.24zM512 343.04c-5.7344 0-10.24-4.5056-10.24-10.24v-26.624c0-5.7344 4.5056-10.24 10.24-10.24s10.24 4.5056 10.24 10.24v26.624c0 5.7344-4.5056 10.24-10.24 10.24zM512 728.064c-5.7344 0-10.24-4.5056-10.24-10.24v-26.624c0-5.7344 4.5056-10.24 10.24-10.24s10.24 4.5056 10.24 10.24v26.624c0 5.7344-4.5056 10.24-10.24 10.24zM512 811.008c-5.7344 0-10.24-4.5056-10.24-10.24v-26.624c0-5.7344 4.5056-10.24 10.24-10.24s10.24 4.5056 10.24 10.24v26.624c0 5.7344-4.5056 10.24-10.24 10.24zM512 893.952c-5.7344 0-10.24-4.5056-10.24-10.24v-26.624c0-5.7344 4.5056-10.24 10.24-10.24s10.24 4.5056 10.24 10.24v26.624c0 5.7344-4.5056 10.24-10.24 10.24zM512 976.896c-5.7344 0-10.24-4.5056-10.24-10.24v-26.624c0-5.7344 4.5056-10.24 10.24-10.24s10.24 4.5056 10.24 10.24v26.624c0 5.7344-4.5056 10.24-10.24 10.24zM966.656 522.24h-26.624c-5.7344 0-10.24-4.5056-10.24-10.24s4.5056-10.24 10.24-10.24h26.624c5.7344 0 10.24 4.5056 10.24 10.24s-4.5056 10.24-10.24 10.24zM883.712 522.24h-26.624c-5.7344 0-10.24-4.5056-10.24-10.24s4.5056-10.24 10.24-10.24h26.624c5.7344 0 10.24 4.5056 10.24 10.24s-4.5056 10.24-10.24 10.24zM800.768 522.24h-26.624c-5.7344 0-10.24-4.5056-10.24-10.24s4.5056-10.24 10.24-10.24h26.624c5.7344 0 10.24 4.5056 10.24 10.24s-4.5056 10.24-10.24 10.24zM717.824 522.24h-26.624c-5.7344 0-10.24-4.5056-10.24-10.24s4.5056-10.24 10.24-10.24h26.624c5.7344 0 10.24 4.5056 10.24 10.24s-4.5056 10.24-10.24 10.24zM332.8 522.24h-26.624c-5.7344 0-10.24-4.5056-10.24-10.24s4.5056-10.24 10.24-10.24h26.624c5.7344 0 10.24 4.5056 10.24 10.24s-4.5056 10.24-10.24 10.24zM249.856 522.24h-26.624c-5.7344 0-10.24-4.5056-10.24-10.24s4.5056-10.24 10.24-10.24h26.624c5.7344 0 10.24 4.5056 10.24 10.24s-4.5056 10.24-10.24 10.24zM166.912 522.24h-26.624c-5.7344 0-10.24-4.5056-10.24-10.24s4.5056-10.24 10.24-10.24h26.624c5.7344 0 10.24 4.5056 10.24 10.24s-4.5056 10.24-10.24 10.24zM83.968 522.24H57.344c-5.7344 0-10.24-4.5056-10.24-10.24s4.5056-10.24 10.24-10.24h26.624c5.7344 0 10.24 4.5056 10.24 10.24s-4.5056 10.24-10.24 10.24z" fill="#1C1D21" p-id="10158"></path></svg>