<?xml version="1.0" standalone="no"?><!DOCTYPE svg PUBLIC "-//W3C//DTD SVG 1.1//EN" "http://www.w3.org/Graphics/SVG/1.1/DTD/svg11.dtd"><svg t="1779879790545" class="icon" viewBox="0 0 1024 1024" version="1.1" xmlns="http://www.w3.org/2000/svg" p-id="38166" xmlns:xlink="http://www.w3.org/1999/xlink" width="200" height="200"><path d="M32.02816 32v832l320 128V160L32.02816 32z m640 675.328l208.4864-79.1552-65.28-538.88L672.02816 32v675.328z" fill="#84BD5A" p-id="38167"></path><path d="M672.02816 32l-205.312 82.0736-114.688 45.9264v832l226.7136-90.7264-68.9664-132.352 162.2528-61.5936z" fill="#6FA14E" p-id="38168"></path><path d="M509.77536 768.9216l68.9664 132.352 93.2864-37.2736v-156.672z" fill="#00A0C5" p-id="38169"></path><path d="M880.51456 628.1728l-208.4864 79.1552v156.672l320 128v-406.0672z" fill="#50BEE8" p-id="38170"></path><path d="M992.02816 160v425.9328l-111.5136 42.24-65.28-538.88z" fill="#50BEE8" p-id="38171"></path><path d="M1005.95456 580.6592a32.0512 32.0512 0 0 0-41.2672-18.5856l-57.2928 21.76L847.79776 92.16a32 32 0 1 0-63.488 7.68l61.44 507.392-173.7216 65.8432v68.4544l315.3408-119.6032a32 32 0 0 0 18.5856-41.2672zM352.02816 502.4768L24.96256 576.8192a32 32 0 0 0 14.1312 62.3616l312.9344-71.0656V502.4768z" fill="#FCD063" p-id="38172"></path><path d="M672.02816 673.0752l-147.0976 55.808-107.3152-205.6704 77.824-388.9152a32 32 0 1 0-62.7712-12.5952L356.73856 501.4016l-4.7104 1.024v65.6896l15.0016-3.4304 180.6336 346.112a32.0512 32.0512 0 0 0 56.7296-29.5936l-49.664-95.232 117.248-44.4416v-68.4544z" fill="#F7B84E" p-id="38173"></path><path d="M992.02816 1024a31.9488 31.9488 0 0 1-11.8784-2.304l-308.1216-123.2384-308.1216 123.2384a32.256 32.256 0 0 1-23.7568 0l-320-128a32 32 0 0 1-20.1216-29.696V32a32 32 0 0 1 43.8784-29.696l308.1216 123.2384L660.14976 2.304c7.68-3.072 16.128-3.072 23.7568 0l320 128a32.0512 32.0512 0 0 1 20.1216 29.696v832a31.9488 31.9488 0 0 1-32 32zM64.02816 842.3424l288 115.2 308.1216-123.2896c7.68-3.0208 16.128-3.0208 23.7568 0l276.1216 110.4896V181.6576l-288-115.2-308.1216 123.2384a32.256 32.256 0 0 1-23.7568 0L64.02816 79.2576v763.0848z" fill="#E2E5E7" p-id="38174"></path><path d="M363.90656 189.696l308.1216-123.2384V0a32.0512 32.0512 0 0 0-11.8784 2.304L352.02816 125.5424V192a32.256 32.256 0 0 0 11.8784-2.304z m296.2432 644.608l-308.1216 123.2384V1024a32.256 32.256 0 0 0 11.8784-2.304l308.1216-123.2384V832a32.4096 32.4096 0 0 0-11.8784 2.2528z" fill="#CAD1D8" p-id="38175"></path></svg>