<?xml version="1.0" standalone="no"?><!DOCTYPE svg PUBLIC "-//W3C//DTD SVG 1.1//EN" "http://www.w3.org/Graphics/SVG/1.1/DTD/svg11.dtd"><svg t="1779879780811" class="icon" viewBox="0 0 1024 1024" version="1.1" xmlns="http://www.w3.org/2000/svg" p-id="38015" xmlns:xlink="http://www.w3.org/1999/xlink" width="200" height="200"><path d="M0 219.428571h1024v804.571429H0V219.428571z" fill="#ECECEC" p-id="38016"></path><path d="M73.142857 292.571429h877.714286v658.285714H73.142857V292.571429z" fill="#1EAAE1" p-id="38017"></path><path d="M748.617143 604.672c81.627429-63.744 97.170286-200.448 58.002286-312.100571H73.142857v658.285714h475.428572c16.091429-35.876571 0-146.285714 33.901714-214.637714 37.485714-57.417143 123.282286-98.048 166.144-131.547429" fill="#8CBE3C" p-id="38018"></path><path d="M548.571429 292.571429v256c0 20.004571-16.566857 36.571429-36.571429 36.571428-20.004571 0-36.571429-16.566857-36.571429-36.571428V292.571429h73.142858" fill="#ECECEC" p-id="38019"></path><path d="M676.571429 164.571429C676.571429 255.414857 602.843429 329.142857 512 329.142857a164.644571 164.644571 0 0 1-164.571429-164.571428C347.428571 73.728 421.156571 0 512 0s164.571429 73.728 164.571429 164.571429" fill="#C0392B" p-id="38020"></path><path d="M566.857143 91.428571a54.857143 54.857143 0 1 0-109.750857 0.036572A54.857143 54.857143 0 0 0 566.857143 91.428571" fill="#E74C3C" p-id="38021"></path></svg>