<?xml version="1.0" standalone="no"?><!DOCTYPE svg PUBLIC "-//W3C//DTD SVG 1.1//EN" "http://www.w3.org/Graphics/SVG/1.1/DTD/svg11.dtd"><svg t="1779879276975" class="icon" viewBox="0 0 1024 1024" version="1.1" xmlns="http://www.w3.org/2000/svg" p-id="18881" xmlns:xlink="http://www.w3.org/1999/xlink" width="200" height="200"><path d="M0 0h1024v1024H0z" fill="#FFFFFF" p-id="18882"></path><path d="M277.333333 117.333333a160.064 160.064 0 0 1 156.8 128H661.333333v14.933334l57.237334-104.917334c12.138667-22.250667 44.053333-22.250667 56.192 0l128 234.666667A32 32 0 0 1 874.666667 437.333333h-96v152.533334a160 160 0 1 1-188.8 188.8H416v106.666666h-277.333333v-277.333333h106.666666v-173.866667a160.064 160.064 0 0 1-127.914666-151.616L117.333333 277.333333A160 160 0 0 1 277.333333 117.333333z m469.333334 533.333334a96 96 0 1 0 0 192 96 96 0 0 0 0-192z m-394.666667 21.333333h-149.333333v149.333333h149.333333v-149.333333z m282.56-362.666667H434.133333a160.192 160.192 0 0 1-124.8 124.8v173.866667h106.666667v106.666667h173.866667a160.192 160.192 0 0 1 124.8-124.8V437.333333H618.666667a32 32 0 0 1-28.096-47.317333l43.989333-80.682667zM746.666667 237.504L672.554667 373.333333h148.202666L746.666667 237.504zM277.333333 181.333333a96 96 0 1 0 0 192 96 96 0 0 0 0-192z" fill="#E22446" p-id="18883"></path></svg>