<?xml version="1.0" standalone="no"?><!DOCTYPE svg PUBLIC "-//W3C//DTD SVG 1.1//EN" "http://www.w3.org/Graphics/SVG/1.1/DTD/svg11.dtd"><svg t="1779879530057" class="icon" viewBox="0 0 1024 1024" version="1.1" xmlns="http://www.w3.org/2000/svg" p-id="26181" xmlns:xlink="http://www.w3.org/1999/xlink" width="200" height="200"><path d="M512 512m-512 0a512 512 0 1 0 1024 0 512 512 0 1 0-1024 0Z" fill="#28A5C6" p-id="26182"></path><path d="M955.2 768.8c0 35.2-28.8 64-64 64H133.6c-35.2 0-64-28.8-64-64V253.6c0-35.2 28.8-64 64-64h757.6c35.2 0 64 28.8 64 64v515.2z" fill="#FBD000" p-id="26183"></path><path d="M891.2 188.8H133.6c-35.2 0-64 28.8-64 64V312c0-35.2 28.8-64 64-64h757.6c35.2 0 64 28.8 64 64v-59.2c0-35.2-28.8-64-64-64z" fill="#F4B10B" p-id="26184"></path><path d="M896 840H136c-40 0-72-32-72-72V248c0-40 32-72 72-72h760c40 0 72 32 72 72v520.8c0 39.2-32 71.2-72 71.2zM136 192c-31.2 0-56 24.8-56 56v520c0 31.2 24.8 56 56 56l760 0.8v8-8c31.2 0 56-24.8 56-56V248c0-31.2-24.8-56-56-56H136z" fill="#074370" p-id="26185"></path><path d="M842.4 676.8c0 26.4-21.6 48-48 48H230.4c-26.4 0-48-21.6-48-48V346.4c0-26.4 21.6-48 48-48h564c26.4 0 48 21.6 48 48v330.4z" fill="#75B600" p-id="26186"></path><path d="M794.4 298.4H230.4c-26.4 0-48 21.6-48 48V400c0-26.4 21.6-48 48-48h564c26.4 0 48 21.6 48 48v-53.6c0-26.4-21.6-48-48-48z" fill="#5C8E0D" p-id="26187"></path><path d="M792 728H232c-31.2 0-56-24.8-56-56V344c0-31.2 24.8-56 56-56h560c31.2 0 56 24.8 56 56v328c0 31.2-24.8 56-56 56zM232 304c-22.4 0-40 17.6-40 40v328c0 22.4 17.6 40 40 40h560c22.4 0 40-17.6 40-40V344c0-22.4-17.6-40-40-40H232z" fill="#074370" p-id="26188"></path><path d="M768 680h-56c-4.8 0-8-3.2-8-8s3.2-8 8-8h56c6.4 0 12-2.4 16.8-7.2 4.8-4.8 7.2-10.4 7.2-16.8l-0.8-264c0-13.6-11.2-24-24-24H264c-13.6 0-24 10.4-24 24v264c0 13.6 10.4 24 24 24h384c4.8 0 8 3.2 8 8s-3.2 8-8 8H264c-22.4 0-40-17.6-40-40V376c0-22.4 17.6-40 40-40h503.2c22.4 0 40 17.6 40 40l0.8 264c0 10.4-4 20.8-12 28-7.2 8-17.6 12-28 12z" fill="#FFFFFF" p-id="26189"></path><path d="M504 349.6h16v324h-16z" fill="#FFFFFF" p-id="26190"></path><path d="M512.8 576c-37.6 0-64.8-27.2-64.8-64.8 0-36.8 27.2-63.2 64.8-63.2 37.6 0 63.2 26.4 63.2 63.2 0 37.6-26.4 64.8-63.2 64.8z m0-112c-28.8 0-48.8 19.2-48.8 47.2 0 28 20.8 48.8 48.8 48.8 28 0 47.2-20 47.2-48.8 0-28-19.2-47.2-47.2-47.2zM288 576h-56c-4.8 0-8-3.2-8-8s3.2-8 8-8h48V464h-48c-4.8 0-8-3.2-8-8s3.2-8 8-8h56c4.8 0 8 3.2 8 8v112c0 4.8-3.2 8-8 8zM798.4 576H744c-4.8 0-8-3.2-8-8V456c0-4.8 3.2-8 8-8h54.4c4.8 0 8 3.2 8 8s-3.2 8-8 8H752v96h46.4c4.8 0 8 3.2 8 8s-3.2 8-8 8z" fill="#FFFFFF" p-id="26191"></path><path d="M512 304c-4.8 0-8-3.2-8-8V192.8c0-4 3.2-8 8-8s8 3.2 8 8V296c0 4.8-3.2 8-8 8zM512 838.4c-4.8 0-8-3.2-8-8V725.6c0-4.8 3.2-8 8-8s8 3.2 8 8v104.8c0 4.8-3.2 8-8 8zM254.4 304c-4 0-7.2-3.2-8-6.4l-16-101.6c-0.8-4 2.4-8.8 6.4-8.8 4-0.8 8.8 2.4 8.8 6.4l16 101.6c0.8 4-2.4 8.8-6.4 8.8h-0.8zM182.4 416h-2.4L72.8 384.8c-4-1.6-6.4-5.6-5.6-9.6 1.6-4 5.6-6.4 9.6-5.6L184.8 400c4 1.6 6.4 5.6 5.6 9.6-1.6 4-4.8 6.4-8 6.4zM775.2 304h-1.6c-4-0.8-7.2-4.8-6.4-8.8l16-101.6c0.8-4 4.8-7.2 8.8-6.4 4 0.8 7.2 4.8 6.4 8.8l-16 101.6c0 3.2-3.2 6.4-7.2 6.4zM885.6 404.8c-3.2 0-6.4-2.4-8-5.6-1.6-4 1.6-8.8 5.6-9.6l69.6-20c4-0.8 8.8 1.6 9.6 5.6 1.6 4-1.6 8.8-5.6 9.6l-69.6 20h-1.6zM238.4 839.2h-1.6c-4-0.8-7.2-4.8-6.4-8.8l16-101.6c0.8-4 4.8-7.2 8.8-6.4 4 0.8 7.2 4.8 6.4 8.8l-16 101.6c0 3.2-3.2 6.4-7.2 6.4zM74.4 656.8c-3.2 0-6.4-2.4-8-5.6-1.6-4 1.6-8.8 5.6-9.6l108-30.4c4-1.6 8.8 1.6 9.6 5.6 1.6 4-1.6 8.8-5.6 9.6L76.8 656c-0.8 0.8-1.6 0.8-2.4 0.8zM791.2 839.2c-4 0-7.2-3.2-8-6.4l-8.8-56c-0.8-4 2.4-8.8 6.4-8.8 4-0.8 8.8 2.4 8.8 6.4l8.8 56c0.8 4-2.4 8.8-6.4 8.8h-0.8zM955.2 656.8h-2.4l-108-30.4c-4-1.6-6.4-5.6-5.6-9.6 1.6-4 5.6-6.4 9.6-5.6l108 30.4c4 1.6 6.4 5.6 5.6 9.6-0.8 3.2-4 5.6-7.2 5.6z" fill="#074370" p-id="26192"></path><path d="M376 264c-13.6 0-24-10.4-24-24s10.4-24 24-24 24 10.4 24 24-10.4 24-24 24z m0-32c-4.8 0-8 3.2-8 8s3.2 8 8 8 8-3.2 8-8-3.2-8-8-8zM648 264c-13.6 0-24-10.4-24-24s10.4-24 24-24 24 10.4 24 24-10.4 24-24 24z m0-32c-4.8 0-8 3.2-8 8s3.2 8 8 8 8-3.2 8-8-3.2-8-8-8zM888 288c-13.6 0-24-10.4-24-24s10.4-24 24-24 24 10.4 24 24-10.4 24-24 24z m0-32c-4.8 0-8 3.2-8 8s3.2 8 8 8 8-3.2 8-8-3.2-8-8-8zM144 296c-13.6 0-24-10.4-24-24s10.4-24 24-24 24 10.4 24 24-10.4 24-24 24z m0-32c-4.8 0-8 3.2-8 8s3.2 8 8 8 8-3.2 8-8-3.2-8-8-8zM376 800c-13.6 0-24-10.4-24-24s10.4-24 24-24 24 10.4 24 24-10.4 24-24 24z m0-32c-4.8 0-8 3.2-8 8s3.2 8 8 8 8-3.2 8-8-3.2-8-8-8zM648 800c-13.6 0-24-10.4-24-24s10.4-24 24-24 24 10.4 24 24-10.4 24-24 24z m0-32c-4.8 0-8 3.2-8 8s3.2 8 8 8 8-3.2 8-8-3.2-8-8-8zM888 776c-13.6 0-24-10.4-24-24s10.4-24 24-24 24 10.4 24 24-10.4 24-24 24z m0-32c-4.8 0-8 3.2-8 8s3.2 8 8 8 8-3.2 8-8c0-4-3.2-8-8-8zM144 776c-13.6 0-24-10.4-24-24 0-12.8 10.4-24 24-24s24 10.4 24 24-10.4 24-24 24z m0-32c-4.8 0-8 3.2-8 8 0 4 3.2 8 8 8s8-3.2 8-8c0-4-3.2-8-8-8zM904 536c-13.6 0-24-10.4-24-24s10.4-24 24-24 24 10.4 24 24-10.4 24-24 24z m0-32c-4.8 0-8 3.2-8 8s3.2 8 8 8 8-3.2 8-8-3.2-8-8-8zM128 536c-13.6 0-24-10.4-24-24s10.4-24 24-24 24 10.4 24 24-10.4 24-24 24z m0-32c-4.8 0-8 3.2-8 8s3.2 8 8 8 8-3.2 8-8-3.2-8-8-8z" fill="#FFFFFF" p-id="26193"></path><path d="M408 952c-17.6 0-32-14.4-32-32s14.4-32 32-32 32 14.4 32 32-14.4 32-32 32z m0-48c-8.8 0-16 7.2-16 16s7.2 16 16 16 16-7.2 16-16-7.2-16-16-16zM640 128c-17.6 0-32-14.4-32-32s14.4-32 32-32 32 14.4 32 32-14.4 32-32 32z m0-48c-8.8 0-16 7.2-16 16s7.2 16 16 16 16-7.2 16-16-7.2-16-16-16zM452.8 103.2c0-3.2-3.2-6.4-8-7.2l-15.2-2.4c-4-0.8-8.8-4.8-8.8-8.8l-2.4-15.2c-0.8-4-4-8-7.2-8s-6.4 3.2-7.2 8l-2.4 15.2c-0.8 4-4.8 8.8-8.8 8.8l-13.6 2.4c-4 0.8-8 4-8 7.2s3.2 6.4 8 7.2l15.2 2.4c4 0.8 8.8 4.8 8.8 8.8l2.4 15.2c0.8 4 4 8 7.2 8s6.4-3.2 6.4-8l2.4-16.8c0.8-4 4.8-8 8.8-8.8l14.4-0.8c4.8-1.6 8-4 8-7.2zM631.2 909.6c0-3.2-3.2-6.4-8-7.2l-15.2-2.4c-4-0.8-8.8-4.8-8.8-8.8l-2.4-15.2c-0.8-4-4-8-7.2-8s-6.4 3.2-7.2 8l-2.4 15.2c-0.8 4-4.8 8.8-8.8 8.8l-15.2 2.4c-4 0.8-8 4-8 7.2s3.2 6.4 8 7.2l15.2 2.4c4 0.8 8.8 4.8 8.8 8.8l2.4 15.2c0.8 4 4 8 7.2 8s6.4-3.2 6.4-8l2.4-16.8c0.8-4 4.8-8 8.8-8.8l14.4-0.8c6.4-1.6 9.6-4 9.6-7.2z" fill="#FFFFFF" opacity=".5" p-id="26194"></path></svg>